<?xml version="1.0" encoding="utf-8"?>
<!-- Generator: Adobe Illustrator 23.1.1, SVG Export Plug-In . SVG Version: 6.00 Build 0)  -->
<svg version="1.1" id="Capa_1" xmlns="http://www.w3.org/2000/svg" xmlns:xlink="http://www.w3.org/1999/xlink" x="0px" y="0px"
	 viewBox="0 0 100 100" style="enable-background:new 0 0 100 100;" xml:space="preserve">
<style type="text/css">
	.st0{fill:#FFFFFF;}
</style>
<rect x="-0.75" y="-0.8" width="100.75" height="100.75"/>
<g>
	<g>
		<path class="st0" d="M65.04,60.77c0,2.96-0.71,5.58-2.13,7.86c-1.42,2.28-3.7,4.06-6.82,5.35c-3.13,1.29-7.24,1.93-12.33,1.93
			c-3.58,0-6.79-0.18-9.62-0.54c-2.83-0.36-5.7-1.04-8.6-2.06V60.44c3.17,1.34,6.4,2.31,9.69,2.9c3.29,0.59,5.88,0.88,7.78,0.88
			c1.96,0,3.38-0.2,4.29-0.6c0.9-0.4,1.36-0.99,1.36-1.79c0-0.69-0.3-1.27-0.91-1.75c-0.61-0.48-1.69-1.04-3.24-1.67
			c-1.56-0.63-3.74-1.48-6.56-2.55c-2.79-1.07-5.1-2.24-6.96-3.5c-1.85-1.26-3.24-2.77-4.16-4.53c-0.92-1.76-1.38-3.91-1.38-6.46
			c0-4.55,1.9-7.98,5.69-10.29c3.79-2.31,8.81-3.46,15.07-3.46c3.32,0,6.44,0.34,9.38,1.01c2.93,0.67,5.97,1.65,9.11,2.94
			l-4.76,10.37c-2.49-1.04-5.01-1.88-7.55-2.51c-2.55-0.63-4.58-0.95-6.09-0.95c-1.36,0-2.42,0.16-3.16,0.49
			c-0.74,0.33-1.11,0.81-1.11,1.44c0,0.58,0.26,1.08,0.78,1.52c0.52,0.44,1.5,0.95,2.96,1.52s3.57,1.39,6.36,2.43
			c2.93,1.1,5.36,2.27,7.27,3.52c1.91,1.25,3.33,2.77,4.27,4.55C64.57,55.76,65.04,58.02,65.04,60.77z"/>
		<path class="st0" d="M89.88,15l0.67,0.91c-0.53,2.03-1.23,4.45-2.09,7.26c-0.86,2.81-1.79,5.63-2.78,8.46
			c-0.99,2.83-1.99,5.28-3,7.37H70.33c0.44-1.92,0.88-3.93,1.31-6.03s0.84-4.2,1.22-6.32c0.38-2.11,0.73-4.16,1.04-6.15
			c0.31-1.99,0.57-3.82,0.78-5.49H89.88z"/>
	</g>
</g>
</svg>
